<svg data-v-423bf9ae="" xmlns="http://www.w3.org/2000/svg" viewBox="0 0 496.7890050588888 163" class="iconAbove"><!----><!----><!----><g data-v-423bf9ae="" id="1808c6f9-efda-407b-bfb0-b37cd2929206" fill="white" transform="matrix(6.209086261652913,0,0,6.209086261652913,-5.029363054671819,100.22613778635818)"><path d="M3.64 1.04C2.39 1.04 1.50 1.18 1.08 1.43C0.90 1.53 0.81 1.65 0.81 1.78L0.81 9.31C0.81 9.42 0.88 9.51 1.01 9.60C1.41 9.88 2.41 10.05 3.82 10.05C6.45 10.05 7.95 8.43 7.95 5.54C7.95 2.66 6.40 1.04 3.64 1.04ZM3.72 8.61C3.16 8.61 2.73 8.58 2.45 8.50L2.46 2.58C2.74 2.49 3.15 2.46 3.65 2.46C5.43 2.46 6.29 3.49 6.29 5.54C6.29 7.60 5.46 8.61 3.72 8.61ZM8.79 5.56C8.79 8.61 10.47 10.05 12.85 10.05C13.96 10.05 14.91 9.72 15.32 9.42C15.74 9.14 15.71 7.78 15.20 8.08C14.78 8.32 13.87 8.61 13.06 8.61C11.69 8.61 10.51 7.70 10.51 5.56C10.51 3.39 11.69 2.48 13.06 2.48C13.87 2.48 14.78 2.77 15.20 3.02C15.71 3.32 15.74 1.97 15.32 1.68C14.91 1.37 13.96 1.04 12.85 1.04C10.47 1.04 8.79 2.48 8.79 5.56ZM29.58 8.57C29.46 8.62 29.34 8.64 29.26 8.64C28.98 8.64 28.85 8.44 28.85 8.05L28.85 7.50L28.85 1.44C28.85 0.88 27.36 0.94 27.23 1.26C26.53 2.86 25.65 4.44 24.46 5.96C23.24 4.44 22.40 2.86 21.69 1.26C21.56 0.94 20.06 0.88 20.06 1.44L20.06 9.63C20.06 10.19 21.70 10.19 21.70 9.63L21.70 4.54C22.58 6.12 23.59 7.57 24.12 7.94C24.32 8.05 24.60 8.05 24.78 7.94C25.33 7.57 26.33 6.10 27.22 4.52L27.22 7.27L27.22 8.29C27.22 9.66 27.79 10.11 28.53 10.11C28.85 10.11 29.23 10.01 29.58 9.87C30.18 9.60 30.16 8.29 29.58 8.57ZM38.81 9.63C37.76 6.45 35.78 2.03 34.90 1.09C34.80 1.01 34.62 1.01 34.52 1.09C33.64 2.03 31.67 6.45 30.62 9.63C30.42 10.21 32.31 10.21 32.48 9.63C32.69 8.93 32.90 8.27 33.11 7.62L36.32 7.62C36.53 8.27 36.74 8.93 36.95 9.63C37.11 10.19 39.02 10.21 38.81 9.63ZM33.59 6.23C33.91 5.33 34.27 4.44 34.72 3.50C35.15 4.44 35.52 5.33 35.84 6.23ZM45.72 1.92L45.72 6.59C44.58 4.68 43.22 2.95 41.36 1.19C41.10 0.94 39.80 0.90 39.80 1.46L39.80 9.63C39.80 10.19 41.44 10.19 41.44 9.63L41.44 3.50C43.16 5.32 44.30 6.86 45.74 9.80C45.91 10.14 47.38 10.19 47.38 9.63L47.38 1.22C47.38 0.56 45.72 1.26 45.72 1.92ZM49.00 6.23C49.00 8.36 49.90 10.05 52.61 10.05C55.33 10.05 56.22 8.36 56.22 6.23L56.22 1.44C56.22 0.88 54.59 0.88 54.59 1.44L54.59 6.17C54.59 7.50 53.97 8.55 52.61 8.55C51.25 8.55 50.64 7.50 50.64 6.17L50.64 1.20C50.64 0.55 49.00 1.25 49.00 1.90ZM63.46 8.51L59.50 8.51L59.50 6.22L62.48 6.22C63.03 6.22 63.03 4.77 62.48 4.77L59.51 4.77L59.51 2.58L62.87 2.58C63.53 2.58 64.25 1.13 63.59 1.13L58.18 1.13C57.99 1.13 57.88 1.41 57.88 1.72L57.88 9.34C57.88 9.65 57.97 9.95 58.18 9.95L63.46 9.95C64.02 9.95 64.02 8.51 63.46 8.51ZM70.62 8.53L66.68 8.53L66.68 1.20C66.68 0.55 65.06 1.25 65.06 1.90L65.06 9.35C65.06 9.65 65.14 9.95 65.37 9.95L70.62 9.95C71.16 9.95 71.16 8.53 70.62 8.53ZM72.45 0.62C71.82 1.43 71.43 2.27 71.43 3.15C71.43 3.74 73.02 3.74 73.02 3.15C73.02 2.38 73.16 1.81 73.60 1.04C73.84 0.60 72.79 0.21 72.45 0.62ZM76.02 3.56C76.02 2.79 76.58 2.37 77.49 2.37C78.20 2.37 79.14 2.62 80.21 3.16C80.75 3.44 80.67 1.93 80.18 1.69C79.32 1.25 78.39 1.02 77.50 1.02C75.82 1.02 74.40 1.88 74.40 3.68C74.40 5.52 75.88 5.82 77.18 6.10C78.23 6.31 79.17 6.51 79.17 7.43C79.17 8.20 78.54 8.64 77.55 8.64C76.82 8.64 75.88 8.40 74.86 7.88C74.28 7.59 74.37 9.14 74.89 9.38C75.75 9.81 76.72 10.05 77.62 10.05C79.35 10.05 80.82 9.20 80.82 7.41C80.82 5.39 79.30 5.08 77.97 4.83C76.93 4.63 76.02 4.47 76.02 3.56Z"></path></g><!----><g data-v-423bf9ae="" id="ea7c2dfe-6128-4f17-89f8-2a8ceaa913d0" transform="matrix(1.5,0,0,1.5,173.6205883026123,-28.999374389648438)" stroke="none" fill="white"><path d="M71.842 38.928a5.805 5.805 0 0 0-6.217-5.347 5.808 5.808 0 0 0-5.349 6.218 5.803 5.803 0 0 0 4.694 5.262l1.334 17.752a1.566 1.566 0 0 0 1.67 1.424 1.541 1.541 0 0 0 1.064-.541c.27-.316.4-.717.367-1.127l-1.342-17.768a5.817 5.817 0 0 0 3.779-5.873zm-5.99-2.32a2.746 2.746 0 0 1 2.943 2.53c.113 1.509-1.021 2.829-2.531 2.942s-2.83-1.021-2.943-2.53a2.746 2.746 0 0 1 2.531-2.942zM82.086 45.149a1.55 1.55 0 0 0-1.166.269 1.53 1.53 0 0 0-.627 1.005l-.422 2.49c-.16.941-.709 1.661-1.49 2l.795-4.687a1.562 1.562 0 0 0-1.275-1.787 1.553 1.553 0 0 0-1.791 1.274l-.793 4.681c-.627-.578-.91-1.438-.748-2.379l.424-2.5a1.563 1.563 0 0 0-1.275-1.784 1.541 1.541 0 0 0-1.164.268c-.34.242-.562.601-.629 1.006l-.425 2.509a5.8 5.8 0 0 0 3.287 6.237l-2.979 17.551a1.565 1.565 0 0 0 1.277 1.784c.41.069.824-.026 1.164-.269.338-.242.561-.6.627-1.005l2.977-17.569c2.545-.28 4.648-2.245 5.082-4.811l.424-2.496a1.562 1.562 0 0 0-1.273-1.787zM52.334 54.759c-.066 0-.128.016-.193.02.112-.386.193-.786.193-1.209a4.283 4.283 0 1 0-8.566 0l.002.023a4.03 4.03 0 0 0-3.551 2.618c-.089-.008-.176-.027-.267-.027a2.864 2.864 0 0 0 0 5.726 2.383 2.383 0 0 0 2.384 2.383 2.37 2.37 0 0 0 1.178-.323c.153.112.316.209.49.29l-.002.029a2.619 2.619 0 1 0 5.239 0c0-.155-.02-.306-.047-.454a2.62 2.62 0 0 0 4.092-2.166c0-.46-.129-.885-.337-1.261a2.858 2.858 0 0 0-.615-5.649z"></path><circle cx="34.236" cy="60.477" r="1.19"></circle><circle cx="57.811" cy="54.76" r="1.423"></circle><circle cx="55.193" cy="49.286" r="1.194"></circle><circle cx="59.234" cy="48.091" r="1.196"></circle><path d="M54.246 44.59c4.286-.955-.953-4.045-2.618-3.093-1.664.953-3.098.953-7.146-1.19-4.047-2.144-5.716-.477-10.479 2.857-4.762 3.334.953 6.668.953 6.668 1.429 4.048 7.381-1.905 9.525-3.811 2.147-1.905 5.478-.476 9.765-1.431z"></path><path d="M63.314 63.039l-.265-3.517a19.007 19.007 0 0 1-2.99 3.92c-7.423 7.423-19.458 7.423-26.88 0-7.424-7.425-7.424-19.459 0-26.881 6.887-6.888 17.74-7.373 25.2-1.478a8.896 8.896 0 0 1 1.485-1.953c-8.423-6.628-20.655-6.073-28.421 1.694-8.382 8.381-8.382 21.969 0 30.352 8.38 8.381 21.97 8.381 30.352 0a21.825 21.825 0 0 0 1.584-1.78c-.02-.121-.054-.235-.065-.357z"></path><g><path d="M69.512 66.91a4.503 4.503 0 0 1-1.311.319 4.943 4.943 0 0 1-.344.013c-1.256 0-2.402-.537-3.234-1.391-.336.38-.66.768-1.023 1.131-9.379 9.378-24.585 9.378-33.963 0-9.379-9.38-9.379-24.584 0-33.963 8.861-8.861 22.919-9.338 32.354-1.453a8.76 8.76 0 0 1 4.073-1.002 8.7 8.7 0 0 1 4.35 1.174 30.38 30.38 0 0 0-2.58-2.953c-11.717-11.715-30.713-11.715-42.428 0-11.716 11.716-11.716 30.711 0 42.428 11.715 11.715 30.711 11.714 42.428-.001.4-.4.783-.811 1.156-1.227l.522-3.075z"></path></g></g><!----></svg>