<svg data-v-423bf9ae="" xmlns="http://www.w3.org/2000/svg" viewBox="0 0 496.7890050588888 60" class="font"><!----><!----><!----><g data-v-423bf9ae="" id="25576702-67d1-4863-9e2b-cd46f2d4bc64" fill="white" transform="matrix(6.209086261652913,0,0,6.209086261652913,-5.029363054671819,-2.7738583989445615)"><path d="M3.64 1.04C2.39 1.04 1.50 1.18 1.08 1.43C0.90 1.53 0.81 1.65 0.81 1.78L0.81 9.31C0.81 9.42 0.88 9.51 1.01 9.60C1.41 9.88 2.41 10.05 3.82 10.05C6.45 10.05 7.95 8.43 7.95 5.54C7.95 2.66 6.40 1.04 3.64 1.04ZM3.72 8.61C3.16 8.61 2.73 8.58 2.45 8.50L2.46 2.58C2.74 2.49 3.15 2.46 3.65 2.46C5.43 2.46 6.29 3.49 6.29 5.54C6.29 7.60 5.46 8.61 3.72 8.61ZM8.79 5.56C8.79 8.61 10.47 10.05 12.85 10.05C13.96 10.05 14.91 9.72 15.32 9.42C15.74 9.14 15.71 7.78 15.20 8.08C14.78 8.32 13.87 8.61 13.06 8.61C11.69 8.61 10.51 7.70 10.51 5.56C10.51 3.39 11.69 2.48 13.06 2.48C13.87 2.48 14.78 2.77 15.20 3.02C15.71 3.32 15.74 1.97 15.32 1.68C14.91 1.37 13.96 1.04 12.85 1.04C10.47 1.04 8.79 2.48 8.79 5.56ZM29.58 8.57C29.46 8.62 29.34 8.64 29.26 8.64C28.98 8.64 28.85 8.44 28.85 8.05L28.85 7.50L28.85 1.44C28.85 0.88 27.36 0.94 27.23 1.26C26.53 2.86 25.65 4.44 24.46 5.96C23.24 4.44 22.40 2.86 21.69 1.26C21.56 0.94 20.06 0.88 20.06 1.44L20.06 9.63C20.06 10.19 21.70 10.19 21.70 9.63L21.70 4.54C22.58 6.12 23.59 7.57 24.12 7.94C24.32 8.05 24.60 8.05 24.78 7.94C25.33 7.57 26.33 6.10 27.22 4.52L27.22 7.27L27.22 8.29C27.22 9.66 27.79 10.11 28.53 10.11C28.85 10.11 29.23 10.01 29.58 9.87C30.18 9.60 30.16 8.29 29.58 8.57ZM38.81 9.63C37.76 6.45 35.78 2.03 34.90 1.09C34.80 1.01 34.62 1.01 34.52 1.09C33.64 2.03 31.67 6.45 30.62 9.63C30.42 10.21 32.31 10.21 32.48 9.63C32.69 8.93 32.90 8.27 33.11 7.62L36.32 7.62C36.53 8.27 36.74 8.93 36.95 9.63C37.11 10.19 39.02 10.21 38.81 9.63ZM33.59 6.23C33.91 5.33 34.27 4.44 34.72 3.50C35.15 4.44 35.52 5.33 35.84 6.23ZM45.72 1.92L45.72 6.59C44.58 4.68 43.22 2.95 41.36 1.19C41.10 0.94 39.80 0.90 39.80 1.46L39.80 9.63C39.80 10.19 41.44 10.19 41.44 9.63L41.44 3.50C43.16 5.32 44.30 6.86 45.74 9.80C45.91 10.14 47.38 10.19 47.38 9.63L47.38 1.22C47.38 0.56 45.72 1.26 45.72 1.92ZM49.00 6.23C49.00 8.36 49.90 10.05 52.61 10.05C55.33 10.05 56.22 8.36 56.22 6.23L56.22 1.44C56.22 0.88 54.59 0.88 54.59 1.44L54.59 6.17C54.59 7.50 53.97 8.55 52.61 8.55C51.25 8.55 50.64 7.50 50.64 6.17L50.64 1.20C50.64 0.55 49.00 1.25 49.00 1.90ZM63.46 8.51L59.50 8.51L59.50 6.22L62.48 6.22C63.03 6.22 63.03 4.77 62.48 4.77L59.51 4.77L59.51 2.58L62.87 2.58C63.53 2.58 64.25 1.13 63.59 1.13L58.18 1.13C57.99 1.13 57.88 1.41 57.88 1.72L57.88 9.34C57.88 9.65 57.97 9.95 58.18 9.95L63.46 9.95C64.02 9.95 64.02 8.51 63.46 8.51ZM70.62 8.53L66.68 8.53L66.68 1.20C66.68 0.55 65.06 1.25 65.06 1.90L65.06 9.35C65.06 9.65 65.14 9.95 65.37 9.95L70.62 9.95C71.16 9.95 71.16 8.53 70.62 8.53ZM72.45 0.62C71.82 1.43 71.43 2.27 71.43 3.15C71.43 3.74 73.02 3.74 73.02 3.15C73.02 2.38 73.16 1.81 73.60 1.04C73.84 0.60 72.79 0.21 72.45 0.62ZM76.02 3.56C76.02 2.79 76.58 2.37 77.49 2.37C78.20 2.37 79.14 2.62 80.21 3.16C80.75 3.44 80.67 1.93 80.18 1.69C79.32 1.25 78.39 1.02 77.50 1.02C75.82 1.02 74.40 1.88 74.40 3.68C74.40 5.52 75.88 5.82 77.18 6.10C78.23 6.31 79.17 6.51 79.17 7.43C79.17 8.20 78.54 8.64 77.55 8.64C76.82 8.64 75.88 8.40 74.86 7.88C74.28 7.59 74.37 9.14 74.89 9.38C75.75 9.81 76.72 10.05 77.62 10.05C79.35 10.05 80.82 9.20 80.82 7.41C80.82 5.39 79.30 5.08 77.97 4.83C76.93 4.63 76.02 4.47 76.02 3.56Z"></path></g><!----><!----></svg>